<svg width="800" height="800" viewBox="0 0 800 800" xmlns="http://www.w3.org/2000/svg">
  <!-- 背景圆形 -->
  <circle cx="400" cy="400" r="360" fill="#4A90E2" />
  
  <!-- 书本主体 -->
  <path d="M250 200 L550 200 C580 200 600 220 600 250 L600 600 C600 630 580 650 550 650 L250 650 C220 650 200 630 200 600 L200 250 C200 220 220 200 250 200 Z" fill="white" />
  
  <!-- 书页效果 -->
  <path d="M400 200 L400 650" stroke="#E8E8E8" stroke-width="5" />
  
  <!-- 漫画风格装饰元素 -->
  <circle cx="300" cy="350" r="40" fill="#FF6B6B" />
  <rect x="450" y="320" width="100" height="60" rx="10" fill="#4ECDC4" />
  
  <circle cx="350" cy="450" r="30" fill="#45B7D1" />
  <rect x="420" y="430" width="80" height="40" rx="8" fill="#96CEB4" />
  
  <circle cx="300" cy="550" r="35" fill="#FFBE0B" />
  <rect x="450" y="530" width="90" height="50" rx="9" fill="#FF006E" />
</svg>